<mxfile host="app.diagrams.net" agent="Mozilla/5.0 (Windows NT 10.0; Win64; x64) AppleWebKit/537.36 (KHTML, like Gecko) Chrome/131.0.0.0 Safari/537.36 Edg/131.0.0.0" version="24.8.6">
  <diagram name="Página-1" id="8-3Gj0vtNBFP6YQ2WaqS">
    <mxGraphModel dx="5465" dy="3890" grid="0" gridSize="10" guides="1" tooltips="1" connect="1" arrows="1" fold="1" page="0" pageScale="1" pageWidth="827" pageHeight="1169" math="0" shadow="0">
      <root>
        <mxCell id="0" />
        <mxCell id="1" parent="0" />
        <mxCell id="_nez8jr7XuiQFjVqz4CB-25" value="Backup Incremental" style="text;html=1;align=center;verticalAlign=middle;whiteSpace=wrap;rounded=0;fontSize=18;" parent="1" vertex="1">
          <mxGeometry x="-580.5" y="821" width="118" height="30" as="geometry" />
        </mxCell>
        <mxCell id="_nez8jr7XuiQFjVqz4CB-30" value="&#xa;Criptografia SSL/TLS aplicada ao tráfego de dados&#xa;&#xa;" style="text;html=1;align=left;verticalAlign=middle;whiteSpace=wrap;rounded=0;fontSize=18;" parent="1" vertex="1">
          <mxGeometry x="-452.25" y="1809" width="247.5" height="30" as="geometry" />
        </mxCell>
        <mxCell id="_nez8jr7XuiQFjVqz4CB-33" value="&#xa;Backups Diários às 03:00 AM&#xa;&#xa;" style="text;html=1;align=center;verticalAlign=middle;whiteSpace=wrap;rounded=0;fontSize=18;" parent="1" vertex="1">
          <mxGeometry x="-613" y="905.25" width="183" height="30" as="geometry" />
        </mxCell>
        <mxCell id="_nez8jr7XuiQFjVqz4CB-36" value="Logs do Sistema" style="text;html=1;align=center;verticalAlign=middle;whiteSpace=wrap;rounded=0;" parent="1" vertex="1">
          <mxGeometry x="-847" y="-37" width="100" height="30" as="geometry" />
        </mxCell>
        <mxCell id="_nez8jr7XuiQFjVqz4CB-37" value="Dados Críticos" style="text;html=1;align=center;verticalAlign=middle;whiteSpace=wrap;rounded=0;" parent="1" vertex="1">
          <mxGeometry x="-684.25" y="-37" width="103" height="30" as="geometry" />
        </mxCell>
        <mxCell id="_nez8jr7XuiQFjVqz4CB-38" value="Configurações da Máquina" style="text;html=1;align=center;verticalAlign=middle;whiteSpace=wrap;rounded=0;" parent="1" vertex="1">
          <mxGeometry x="-545" y="-37" width="167" height="30" as="geometry" />
        </mxCell>
        <mxCell id="WUNTxTCib2SiPZ_xBOhH-1" value="" style="shape=mxgraph.cisco.computers_and_peripherals.macintosh;sketch=0;html=1;pointerEvents=1;dashed=0;fillColor=#036897;strokeColor=#ffffff;strokeWidth=2;verticalLabelPosition=bottom;verticalAlign=top;align=center;outlineConnect=0;" vertex="1" parent="1">
          <mxGeometry x="-859.5" y="34.5" width="130" height="89" as="geometry" />
        </mxCell>
        <mxCell id="WUNTxTCib2SiPZ_xBOhH-7" value="" style="strokeWidth=2;html=1;shape=mxgraph.flowchart.annotation_1;align=left;pointerEvents=1;rotation=-90;" vertex="1" parent="1">
          <mxGeometry x="-741" y="69" width="59" height="166" as="geometry" />
        </mxCell>
        <mxCell id="WUNTxTCib2SiPZ_xBOhH-8" value="" style="strokeWidth=2;html=1;shape=mxgraph.flowchart.annotation_1;align=left;pointerEvents=1;rotation=-90;" vertex="1" parent="1">
          <mxGeometry x="-574.5" y="69" width="59" height="166" as="geometry" />
        </mxCell>
        <mxCell id="WUNTxTCib2SiPZ_xBOhH-9" value="" style="strokeWidth=2;html=1;shape=mxgraph.flowchart.annotation_1;align=left;pointerEvents=1;rotation=-90;" vertex="1" parent="1">
          <mxGeometry x="-407.5" y="69" width="59" height="166" as="geometry" />
        </mxCell>
        <mxCell id="WUNTxTCib2SiPZ_xBOhH-15" value="" style="shape=image;html=1;verticalLabelPosition=bottom;verticalAlign=top;imageAspect=0;image=img/clipart/Gear_128x128.png" vertex="1" parent="1">
          <mxGeometry x="-587.5" y="296" width="76.5" height="91.8" as="geometry" />
        </mxCell>
        <mxCell id="WUNTxTCib2SiPZ_xBOhH-17" value="" style="rounded=1;whiteSpace=wrap;html=1;" vertex="1" parent="1">
          <mxGeometry x="-843" y="3" width="90.5" height="24" as="geometry" />
        </mxCell>
        <mxCell id="WUNTxTCib2SiPZ_xBOhH-18" value="" style="rounded=1;whiteSpace=wrap;html=1;" vertex="1" parent="1">
          <mxGeometry x="-678" y="3" width="90.5" height="24" as="geometry" />
        </mxCell>
        <mxCell id="WUNTxTCib2SiPZ_xBOhH-19" value="" style="rounded=1;whiteSpace=wrap;html=1;" vertex="1" parent="1">
          <mxGeometry x="-506.5" y="3" width="90.5" height="24" as="geometry" />
        </mxCell>
        <mxCell id="WUNTxTCib2SiPZ_xBOhH-20" value="" style="rounded=1;whiteSpace=wrap;html=1;" vertex="1" parent="1">
          <mxGeometry x="-345" y="3" width="90.5" height="24" as="geometry" />
        </mxCell>
        <mxCell id="WUNTxTCib2SiPZ_xBOhH-21" value="VM 1&amp;nbsp;" style="text;html=1;align=center;verticalAlign=middle;whiteSpace=wrap;rounded=0;fontSize=14;" vertex="1" parent="1">
          <mxGeometry x="-823.5" width="60" height="30" as="geometry" />
        </mxCell>
        <mxCell id="WUNTxTCib2SiPZ_xBOhH-22" value="VM 2" style="text;html=1;align=center;verticalAlign=middle;whiteSpace=wrap;rounded=0;fontSize=14;" vertex="1" parent="1">
          <mxGeometry x="-665" width="60" height="30" as="geometry" />
        </mxCell>
        <mxCell id="WUNTxTCib2SiPZ_xBOhH-23" value="VM 3" style="text;html=1;align=center;verticalAlign=middle;whiteSpace=wrap;rounded=0;fontSize=14;" vertex="1" parent="1">
          <mxGeometry x="-491.25" width="60" height="30" as="geometry" />
        </mxCell>
        <mxCell id="WUNTxTCib2SiPZ_xBOhH-24" value="VM 4&amp;nbsp;" style="text;html=1;align=center;verticalAlign=middle;whiteSpace=wrap;rounded=0;fontSize=14;" vertex="1" parent="1">
          <mxGeometry x="-329.75" width="60" height="30" as="geometry" />
        </mxCell>
        <mxCell id="WUNTxTCib2SiPZ_xBOhH-27" value="" style="html=1;shadow=0;dashed=0;align=center;verticalAlign=middle;shape=mxgraph.arrows2.twoWayArrow;dy=0.65;dx=22;rotation=-180;" vertex="1" parent="1">
          <mxGeometry x="-813.5" y="323" width="81.5" height="23" as="geometry" />
        </mxCell>
        <mxCell id="WUNTxTCib2SiPZ_xBOhH-30" value="" style="shape=mxgraph.cisco.security.lock;sketch=0;html=1;pointerEvents=1;dashed=0;fillColor=#036897;strokeColor=#ffffff;strokeWidth=2;verticalLabelPosition=bottom;verticalAlign=top;align=center;outlineConnect=0;" vertex="1" parent="1">
          <mxGeometry x="-554.75" y="1418.5" width="86.5" height="91" as="geometry" />
        </mxCell>
        <mxCell id="WUNTxTCib2SiPZ_xBOhH-31" value="" style="shape=mxgraph.cisco.security.ios_firewall;sketch=0;html=1;pointerEvents=1;dashed=0;fillColor=#036897;strokeColor=#ffffff;strokeWidth=2;verticalLabelPosition=bottom;verticalAlign=top;align=center;outlineConnect=0;" vertex="1" parent="1">
          <mxGeometry x="-813.5" y="151" width="40" height="66" as="geometry" />
        </mxCell>
        <mxCell id="WUNTxTCib2SiPZ_xBOhH-32" value="" style="shape=mxgraph.cisco.switches.class_4_5_switch;sketch=0;html=1;pointerEvents=1;dashed=0;fillColor=#036897;strokeColor=#ffffff;strokeWidth=2;verticalLabelPosition=bottom;verticalAlign=top;align=center;outlineConnect=0;" vertex="1" parent="1">
          <mxGeometry x="-438.5" y="802" width="114.5" height="153" as="geometry" />
        </mxCell>
        <mxCell id="WUNTxTCib2SiPZ_xBOhH-33" value="" style="shape=mxgraph.cisco.servers.host;sketch=0;html=1;pointerEvents=1;dashed=0;fillColor=#036897;strokeColor=#ffffff;strokeWidth=2;verticalLabelPosition=bottom;verticalAlign=top;align=center;outlineConnect=0;" vertex="1" parent="1">
          <mxGeometry x="-923.5" y="313.4" width="104" height="51" as="geometry" />
        </mxCell>
        <mxCell id="WUNTxTCib2SiPZ_xBOhH-34" value="" style="shape=mxgraph.cisco.storage.cloud;sketch=0;html=1;pointerEvents=1;dashed=0;fillColor=#036897;strokeColor=#ffffff;strokeWidth=2;verticalLabelPosition=bottom;verticalAlign=top;align=center;outlineConnect=0;" vertex="1" parent="1">
          <mxGeometry x="-669.5" y="1916" width="333" height="163" as="geometry" />
        </mxCell>
        <mxCell id="WUNTxTCib2SiPZ_xBOhH-35" value="" style="shape=mxgraph.cisco.security.ios_firewall;sketch=0;html=1;pointerEvents=1;dashed=0;fillColor=#036897;strokeColor=#ffffff;strokeWidth=2;verticalLabelPosition=bottom;verticalAlign=top;align=center;outlineConnect=0;" vertex="1" parent="1">
          <mxGeometry x="-648.5" y="151" width="40" height="66" as="geometry" />
        </mxCell>
        <mxCell id="WUNTxTCib2SiPZ_xBOhH-36" value="" style="shape=mxgraph.cisco.security.ios_firewall;sketch=0;html=1;pointerEvents=1;dashed=0;fillColor=#036897;strokeColor=#ffffff;strokeWidth=2;verticalLabelPosition=bottom;verticalAlign=top;align=center;outlineConnect=0;" vertex="1" parent="1">
          <mxGeometry x="-477" y="148" width="40" height="66" as="geometry" />
        </mxCell>
        <mxCell id="WUNTxTCib2SiPZ_xBOhH-37" value="" style="shape=mxgraph.cisco.security.ios_firewall;sketch=0;html=1;pointerEvents=1;dashed=0;fillColor=#036897;strokeColor=#ffffff;strokeWidth=2;verticalLabelPosition=bottom;verticalAlign=top;align=center;outlineConnect=0;" vertex="1" parent="1">
          <mxGeometry x="-309.75" y="144" width="40" height="66" as="geometry" />
        </mxCell>
        <mxCell id="WUNTxTCib2SiPZ_xBOhH-42" value="" style="rounded=1;whiteSpace=wrap;html=1;" vertex="1" parent="1">
          <mxGeometry x="-603.5" y="397" width="120" height="31" as="geometry" />
        </mxCell>
        <mxCell id="WUNTxTCib2SiPZ_xBOhH-43" value="Hyper-V" style="text;html=1;align=center;verticalAlign=middle;whiteSpace=wrap;rounded=0;arcSize=14;strokeWidth=1;perimeterSpacing=0;fontSize=18;" vertex="1" parent="1">
          <mxGeometry x="-578.5" y="397" width="76" height="30" as="geometry" />
        </mxCell>
        <mxCell id="WUNTxTCib2SiPZ_xBOhH-44" value="" style="rounded=1;whiteSpace=wrap;html=1;" vertex="1" parent="1">
          <mxGeometry x="-926.5" y="381" width="120" height="31" as="geometry" />
        </mxCell>
        <mxCell id="WUNTxTCib2SiPZ_xBOhH-45" value="Host" style="text;html=1;align=center;verticalAlign=middle;whiteSpace=wrap;rounded=0;arcSize=14;strokeWidth=1;perimeterSpacing=0;fontSize=18;" vertex="1" parent="1">
          <mxGeometry x="-896.5" y="379" width="60" height="36" as="geometry" />
        </mxCell>
        <mxCell id="WUNTxTCib2SiPZ_xBOhH-49" value="" style="html=1;shadow=0;dashed=0;align=center;verticalAlign=middle;shape=mxgraph.arrows2.twoWayArrow;dy=0.65;dx=22;rotation=-90;" vertex="1" parent="1">
          <mxGeometry x="-552.13" y="459.12" width="68.25" height="23" as="geometry" />
        </mxCell>
        <mxCell id="WUNTxTCib2SiPZ_xBOhH-52" value="" style="shape=mxgraph.cisco.switches.class_4_5_switch;sketch=0;html=1;pointerEvents=1;dashed=0;fillColor=#036897;strokeColor=#ffffff;strokeWidth=2;verticalLabelPosition=bottom;verticalAlign=top;align=center;outlineConnect=0;" vertex="1" parent="1">
          <mxGeometry x="-723" y="802" width="114.5" height="153" as="geometry" />
        </mxCell>
        <mxCell id="WUNTxTCib2SiPZ_xBOhH-53" value="" style="strokeWidth=2;html=1;shape=mxgraph.flowchart.annotation_1;align=left;pointerEvents=1;rotation=90;" vertex="1" parent="1">
          <mxGeometry x="-561.25" y="619.25" width="76.5" height="286" as="geometry" />
        </mxCell>
        <mxCell id="WUNTxTCib2SiPZ_xBOhH-54" value="" style="strokeWidth=2;html=1;shape=mxgraph.flowchart.annotation_1;align=left;pointerEvents=1;rotation=-90;" vertex="1" parent="1">
          <mxGeometry x="-562" y="858" width="76.5" height="286" as="geometry" />
        </mxCell>
        <mxCell id="WUNTxTCib2SiPZ_xBOhH-60" value="" style="html=1;shadow=0;dashed=0;align=center;verticalAlign=middle;shape=mxgraph.arrows2.twoWayArrow;dy=0.65;dx=22;rotation=-90;" vertex="1" parent="1">
          <mxGeometry x="-529" y="1079" width="72" height="23" as="geometry" />
        </mxCell>
        <mxCell id="WUNTxTCib2SiPZ_xBOhH-61" value="" style="html=1;shadow=0;dashed=0;align=center;verticalAlign=middle;shape=mxgraph.arrows2.twoWayArrow;dy=0.65;dx=22;rotation=-90;" vertex="1" parent="1">
          <mxGeometry x="-522.25" y="1847" width="70" height="23" as="geometry" />
        </mxCell>
        <mxCell id="WUNTxTCib2SiPZ_xBOhH-63" value="" style="shape=mxgraph.cisco.security.ios_firewall;sketch=0;html=1;pointerEvents=1;dashed=0;fillColor=#036897;strokeColor=#ffffff;strokeWidth=2;verticalLabelPosition=bottom;verticalAlign=top;align=center;outlineConnect=0;" vertex="1" parent="1">
          <mxGeometry x="-685.75" y="1000" width="40" height="66" as="geometry" />
        </mxCell>
        <mxCell id="WUNTxTCib2SiPZ_xBOhH-64" value="" style="shape=mxgraph.cisco.security.ios_firewall;sketch=0;html=1;pointerEvents=1;dashed=0;fillColor=#036897;strokeColor=#ffffff;strokeWidth=2;verticalLabelPosition=bottom;verticalAlign=top;align=center;outlineConnect=0;" vertex="1" parent="1">
          <mxGeometry x="-401.25" y="1002" width="40" height="66" as="geometry" />
        </mxCell>
        <mxCell id="WUNTxTCib2SiPZ_xBOhH-65" value="" style="rounded=1;whiteSpace=wrap;html=1;" vertex="1" parent="1">
          <mxGeometry x="-542.25" y="1979" width="90" height="44" as="geometry" />
        </mxCell>
        <mxCell id="WUNTxTCib2SiPZ_xBOhH-66" value="Cloud" style="text;html=1;align=center;verticalAlign=middle;whiteSpace=wrap;rounded=0;fontSize=18;" vertex="1" parent="1">
          <mxGeometry x="-530.5" y="1986" width="60" height="30" as="geometry" />
        </mxCell>
        <mxCell id="WUNTxTCib2SiPZ_xBOhH-67" value="" style="shape=mxgraph.cisco.security.ios_firewall;sketch=0;html=1;pointerEvents=1;dashed=0;fillColor=#036897;strokeColor=#ffffff;strokeWidth=2;verticalLabelPosition=bottom;verticalAlign=top;align=center;outlineConnect=0;" vertex="1" parent="1">
          <mxGeometry x="-684.75" y="688" width="40" height="66" as="geometry" />
        </mxCell>
        <mxCell id="WUNTxTCib2SiPZ_xBOhH-68" value="" style="shape=mxgraph.cisco.security.ios_firewall;sketch=0;html=1;pointerEvents=1;dashed=0;fillColor=#036897;strokeColor=#ffffff;strokeWidth=2;verticalLabelPosition=bottom;verticalAlign=top;align=center;outlineConnect=0;" vertex="1" parent="1">
          <mxGeometry x="-400.25" y="690" width="40" height="66" as="geometry" />
        </mxCell>
        <mxCell id="WUNTxTCib2SiPZ_xBOhH-69" value="" style="shape=mxgraph.cisco.security.ios_firewall;sketch=0;html=1;pointerEvents=1;dashed=0;fillColor=#036897;strokeColor=#ffffff;strokeWidth=2;verticalLabelPosition=bottom;verticalAlign=top;align=center;outlineConnect=0;" vertex="1" parent="1">
          <mxGeometry x="-727" y="317.5" width="40" height="66" as="geometry" />
        </mxCell>
        <mxCell id="WUNTxTCib2SiPZ_xBOhH-70" value="" style="shape=mxgraph.cisco.servers.fileserver;sketch=0;html=1;pointerEvents=1;dashed=0;fillColor=#036897;strokeColor=#ffffff;strokeWidth=2;verticalLabelPosition=bottom;verticalAlign=top;align=center;outlineConnect=0;" vertex="1" parent="1">
          <mxGeometry x="-815" y="1400" width="139" height="152" as="geometry" />
        </mxCell>
        <mxCell id="WUNTxTCib2SiPZ_xBOhH-71" value="" style="html=1;shadow=0;dashed=0;align=center;verticalAlign=middle;shape=mxgraph.arrows2.twoWayArrow;dy=0.65;dx=22;rotation=-90;" vertex="1" parent="1">
          <mxGeometry x="-529.5" y="1635" width="70" height="23" as="geometry" />
        </mxCell>
        <mxCell id="WUNTxTCib2SiPZ_xBOhH-74" value="&lt;span style=&quot;color: rgba(0, 0, 0, 0); font-family: monospace; font-size: 0px; text-align: start; text-wrap-mode: nowrap;&quot;&gt;%3CmxGraphModel%3E%3Croot%3E%3CmxCell%20id%3D%220%22%2F%3E%3CmxCell%20id%3D%221%22%20parent%3D%220%22%2F%3E%3CmxCell%20id%3D%222%22%20value%3D%22Backup%20Server%22%20style%3D%22text%3Bhtml%3D1%3Balign%3Dcenter%3BverticalAlign%3Dmiddle%3BwhiteSpace%3Dwrap%3Brounded%3D0%3B%22%20vertex%3D%221%22%20parent%3D%221%22%3E%3CmxGeometry%20x%3D%22109%22%20y%3D%22180%22%20width%3D%2285%22%20height%3D%2230%22%20as%3D%22geometry%22%2F%3E%3C%2FmxCell%3E%3C%2Froot%3E%3C%2FmxGraphModel%3E&lt;/span&gt;" style="rounded=1;whiteSpace=wrap;html=1;" vertex="1" parent="1">
          <mxGeometry x="-915.5" y="1333" width="152" height="58" as="geometry" />
        </mxCell>
        <mxCell id="WUNTxTCib2SiPZ_xBOhH-75" value="Backup Server" style="text;html=1;align=center;verticalAlign=middle;whiteSpace=wrap;rounded=0;fontSize=18;" vertex="1" parent="1">
          <mxGeometry x="-903.25" y="1347" width="127.5" height="30" as="geometry" />
        </mxCell>
        <mxCell id="WUNTxTCib2SiPZ_xBOhH-76" value="&lt;span style=&quot;color: rgba(0, 0, 0, 0); font-family: monospace; font-size: 0px; text-align: start; text-wrap-mode: nowrap;&quot;&gt;%3CmxGraphModel%3E%3Croot%3E%3CmxCell%20id%3D%220%22%2F%3E%3CmxCell%20id%3D%221%22%20parent%3D%220%22%2F%3E%3CmxCell%20id%3D%222%22%20value%3D%22Backup%20Server%22%20style%3D%22text%3Bhtml%3D1%3Balign%3Dcenter%3BverticalAlign%3Dmiddle%3BwhiteSpace%3Dwrap%3Brounded%3D0%3B%22%20vertex%3D%221%22%20parent%3D%221%22%3E%3CmxGeometry%20x%3D%22109%22%20y%3D%22180%22%20width%3D%2285%22%20height%3D%2230%22%20as%3D%22geometry%22%2F%3E%3C%2FmxCell%3E%3C%2Froot%3E%3C%2FmxGraphModel%3E&lt;/span&gt;" style="rounded=1;whiteSpace=wrap;html=1;" vertex="1" parent="1">
          <mxGeometry x="-872.25" y="844" width="119" height="58" as="geometry" />
        </mxCell>
        <mxCell id="WUNTxTCib2SiPZ_xBOhH-77" value="Switches" style="text;html=1;align=center;verticalAlign=middle;whiteSpace=wrap;rounded=0;fontSize=18;" vertex="1" parent="1">
          <mxGeometry x="-880" y="858" width="127.5" height="30" as="geometry" />
        </mxCell>
        <mxCell id="WUNTxTCib2SiPZ_xBOhH-78" value="&lt;span style=&quot;color: rgba(0, 0, 0, 0); font-family: monospace; font-size: 0px; text-align: start; text-wrap-mode: nowrap;&quot;&gt;%3CmxGraphModel%3E%3Croot%3E%3CmxCell%20id%3D%220%22%2F%3E%3CmxCell%20id%3D%221%22%20parent%3D%220%22%2F%3E%3CmxCell%20id%3D%222%22%20value%3D%22Backup%20Server%22%20style%3D%22text%3Bhtml%3D1%3Balign%3Dcenter%3BverticalAlign%3Dmiddle%3BwhiteSpace%3Dwrap%3Brounded%3D0%3B%22%20vertex%3D%221%22%20parent%3D%221%22%3E%3CmxGeometry%20x%3D%22109%22%20y%3D%22180%22%20width%3D%2285%22%20height%3D%2230%22%20as%3D%22geometry%22%2F%3E%3C%2FmxCell%3E%3C%2Froot%3E%3C%2FmxGraphModel%3E&lt;/span&gt;" style="rounded=1;whiteSpace=wrap;html=1;" vertex="1" parent="1">
          <mxGeometry x="-294.75" y="841" width="124" height="56" as="geometry" />
        </mxCell>
        <mxCell id="WUNTxTCib2SiPZ_xBOhH-79" value="Switches" style="text;html=1;align=center;verticalAlign=middle;whiteSpace=wrap;rounded=0;fontSize=18;" vertex="1" parent="1">
          <mxGeometry x="-298" y="855" width="127.5" height="30" as="geometry" />
        </mxCell>
        <mxCell id="WUNTxTCib2SiPZ_xBOhH-81" value="&lt;span style=&quot;color: rgba(0, 0, 0, 0); font-family: monospace; font-size: 0px; text-align: start; text-wrap-mode: nowrap;&quot;&gt;%3CmxGraphModel%3E%3Croot%3E%3CmxCell%20id%3D%220%22%2F%3E%3CmxCell%20id%3D%221%22%20parent%3D%220%22%2F%3E%3CmxCell%20id%3D%222%22%20value%3D%22Backup%20Server%22%20style%3D%22text%3Bhtml%3D1%3Balign%3Dcenter%3BverticalAlign%3Dmiddle%3BwhiteSpace%3Dwrap%3Brounded%3D0%3B%22%20vertex%3D%221%22%20parent%3D%221%22%3E%3CmxGeometry%20x%3D%22109%22%20y%3D%22180%22%20width%3D%2285%22%20height%3D%2230%22%20as%3D%22geometry%22%2F%3E%3C%2FmxCell%3E%3C%2Froot%3E%3C%2FmxGraphModel%3E&lt;/span&gt;" style="rounded=1;whiteSpace=wrap;html=1;" vertex="1" parent="1">
          <mxGeometry x="-447.75" y="1728" width="113" height="42" as="geometry" />
        </mxCell>
        <mxCell id="WUNTxTCib2SiPZ_xBOhH-82" value="Security" style="text;html=1;align=center;verticalAlign=middle;whiteSpace=wrap;rounded=0;fontSize=18;" vertex="1" parent="1">
          <mxGeometry x="-455" y="1733" width="127.5" height="30" as="geometry" />
        </mxCell>
        <mxCell id="WUNTxTCib2SiPZ_xBOhH-91" value="&lt;span style=&quot;color: rgba(0, 0, 0, 0); font-family: monospace; font-size: 0px; text-align: start; text-wrap-mode: nowrap;&quot;&gt;%3CmxGraphModel%3E%3Croot%3E%3CmxCell%20id%3D%220%22%2F%3E%3CmxCell%20id%3D%221%22%20parent%3D%220%22%2F%3E%3CmxCell%20id%3D%222%22%20value%3D%22Backup%20Server%22%20style%3D%22text%3Bhtml%3D1%3Balign%3Dcenter%3BverticalAlign%3Dmiddle%3BwhiteSpace%3Dwrap%3Brounded%3D0%3B%22%20vertex%3D%221%22%20parent%3D%221%22%3E%3CmxGeometry%20x%3D%22109%22%20y%3D%22180%22%20width%3D%2285%22%20height%3D%2230%22%20as%3D%22geometry%22%2F%3E%3C%2FmxCell%3E%3C%2Froot%3E%3C%2FmxGraphModel%3E&lt;/span&gt;" style="rounded=1;whiteSpace=wrap;html=1;" vertex="1" parent="1">
          <mxGeometry x="-332" y="244" width="93" height="32" as="geometry" />
        </mxCell>
        <mxCell id="WUNTxTCib2SiPZ_xBOhH-92" value="Firewall" style="text;html=1;align=center;verticalAlign=middle;whiteSpace=wrap;rounded=0;fontSize=16;" vertex="1" parent="1">
          <mxGeometry x="-316.75" y="245" width="62.5" height="30" as="geometry" />
        </mxCell>
        <mxCell id="WUNTxTCib2SiPZ_xBOhH-99" value="&lt;span style=&quot;color: rgba(0, 0, 0, 0); font-family: monospace; font-size: 0px; text-align: start; text-wrap-mode: nowrap;&quot;&gt;%3CmxGraphModel%3E%3Croot%3E%3CmxCell%20id%3D%220%22%2F%3E%3CmxCell%20id%3D%221%22%20parent%3D%220%22%2F%3E%3CmxCell%20id%3D%222%22%20value%3D%22Backup%20Server%22%20style%3D%22text%3Bhtml%3D1%3Balign%3Dcenter%3BverticalAlign%3Dmiddle%3BwhiteSpace%3Dwrap%3Brounded%3D0%3B%22%20vertex%3D%221%22%20parent%3D%221%22%3E%3CmxGeometry%20x%3D%22109%22%20y%3D%22180%22%20width%3D%2285%22%20height%3D%2230%22%20as%3D%22geometry%22%2F%3E%3C%2FmxCell%3E%3C%2Froot%3E%3C%2FmxGraphModel%3E&lt;/span&gt;" style="rounded=1;whiteSpace=wrap;html=1;" vertex="1" parent="1">
          <mxGeometry x="-515.5" y="245" width="93" height="32" as="geometry" />
        </mxCell>
        <mxCell id="WUNTxTCib2SiPZ_xBOhH-100" value="Firewall" style="text;html=1;align=center;verticalAlign=middle;whiteSpace=wrap;rounded=0;fontSize=16;" vertex="1" parent="1">
          <mxGeometry x="-500.25" y="246" width="62.5" height="30" as="geometry" />
        </mxCell>
        <mxCell id="WUNTxTCib2SiPZ_xBOhH-101" value="&lt;span style=&quot;color: rgba(0, 0, 0, 0); font-family: monospace; font-size: 0px; text-align: start; text-wrap-mode: nowrap;&quot;&gt;%3CmxGraphModel%3E%3Croot%3E%3CmxCell%20id%3D%220%22%2F%3E%3CmxCell%20id%3D%221%22%20parent%3D%220%22%2F%3E%3CmxCell%20id%3D%222%22%20value%3D%22Backup%20Server%22%20style%3D%22text%3Bhtml%3D1%3Balign%3Dcenter%3BverticalAlign%3Dmiddle%3BwhiteSpace%3Dwrap%3Brounded%3D0%3B%22%20vertex%3D%221%22%20parent%3D%221%22%3E%3CmxGeometry%20x%3D%22109%22%20y%3D%22180%22%20width%3D%2285%22%20height%3D%2230%22%20as%3D%22geometry%22%2F%3E%3C%2FmxCell%3E%3C%2Froot%3E%3C%2FmxGraphModel%3E&lt;/span&gt;" style="rounded=1;whiteSpace=wrap;html=1;" vertex="1" parent="1">
          <mxGeometry x="-679.25" y="244" width="93" height="32" as="geometry" />
        </mxCell>
        <mxCell id="WUNTxTCib2SiPZ_xBOhH-102" value="Firewall" style="text;html=1;align=center;verticalAlign=middle;whiteSpace=wrap;rounded=0;fontSize=16;" vertex="1" parent="1">
          <mxGeometry x="-664" y="245" width="62.5" height="30" as="geometry" />
        </mxCell>
        <mxCell id="WUNTxTCib2SiPZ_xBOhH-103" value="&lt;span style=&quot;color: rgba(0, 0, 0, 0); font-family: monospace; font-size: 0px; text-align: start; text-wrap-mode: nowrap;&quot;&gt;%3CmxGraphModel%3E%3Croot%3E%3CmxCell%20id%3D%220%22%2F%3E%3CmxCell%20id%3D%221%22%20parent%3D%220%22%2F%3E%3CmxCell%20id%3D%222%22%20value%3D%22Backup%20Server%22%20style%3D%22text%3Bhtml%3D1%3Balign%3Dcenter%3BverticalAlign%3Dmiddle%3BwhiteSpace%3Dwrap%3Brounded%3D0%3B%22%20vertex%3D%221%22%20parent%3D%221%22%3E%3CmxGeometry%20x%3D%22109%22%20y%3D%22180%22%20width%3D%2285%22%20height%3D%2230%22%20as%3D%22geometry%22%2F%3E%3C%2FmxCell%3E%3C%2Froot%3E%3C%2FmxGraphModel%3E&lt;/span&gt;" style="rounded=1;whiteSpace=wrap;html=1;" vertex="1" parent="1">
          <mxGeometry x="-837" y="237" width="93" height="32" as="geometry" />
        </mxCell>
        <mxCell id="WUNTxTCib2SiPZ_xBOhH-104" value="Firewall" style="text;html=1;align=center;verticalAlign=middle;whiteSpace=wrap;rounded=0;fontSize=16;" vertex="1" parent="1">
          <mxGeometry x="-821.75" y="238" width="62.5" height="30" as="geometry" />
        </mxCell>
        <mxCell id="WUNTxTCib2SiPZ_xBOhH-105" value="&lt;span style=&quot;color: rgba(0, 0, 0, 0); font-family: monospace; font-size: 0px; text-align: start; text-wrap-mode: nowrap;&quot;&gt;%3CmxGraphModel%3E%3Croot%3E%3CmxCell%20id%3D%220%22%2F%3E%3CmxCell%20id%3D%221%22%20parent%3D%220%22%2F%3E%3CmxCell%20id%3D%222%22%20value%3D%22Backup%20Server%22%20style%3D%22text%3Bhtml%3D1%3Balign%3Dcenter%3BverticalAlign%3Dmiddle%3BwhiteSpace%3Dwrap%3Brounded%3D0%3B%22%20vertex%3D%221%22%20parent%3D%221%22%3E%3CmxGeometry%20x%3D%22109%22%20y%3D%22180%22%20width%3D%2285%22%20height%3D%2230%22%20as%3D%22geometry%22%2F%3E%3C%2FmxCell%3E%3C%2Froot%3E%3C%2FmxGraphModel%3E&lt;/span&gt;" style="rounded=1;whiteSpace=wrap;html=1;" vertex="1" parent="1">
          <mxGeometry x="-786.25" y="702" width="93" height="32" as="geometry" />
        </mxCell>
        <mxCell id="WUNTxTCib2SiPZ_xBOhH-106" value="Firewall" style="text;html=1;align=center;verticalAlign=middle;whiteSpace=wrap;rounded=0;fontSize=16;" vertex="1" parent="1">
          <mxGeometry x="-771" y="703" width="62.5" height="30" as="geometry" />
        </mxCell>
        <mxCell id="WUNTxTCib2SiPZ_xBOhH-107" value="&lt;span style=&quot;color: rgba(0, 0, 0, 0); font-family: monospace; font-size: 0px; text-align: start; text-wrap-mode: nowrap;&quot;&gt;%3CmxGraphModel%3E%3Croot%3E%3CmxCell%20id%3D%220%22%2F%3E%3CmxCell%20id%3D%221%22%20parent%3D%220%22%2F%3E%3CmxCell%20id%3D%222%22%20value%3D%22Backup%20Server%22%20style%3D%22text%3Bhtml%3D1%3Balign%3Dcenter%3BverticalAlign%3Dmiddle%3BwhiteSpace%3Dwrap%3Brounded%3D0%3B%22%20vertex%3D%221%22%20parent%3D%221%22%3E%3CmxGeometry%20x%3D%22109%22%20y%3D%22180%22%20width%3D%2285%22%20height%3D%2230%22%20as%3D%22geometry%22%2F%3E%3C%2FmxCell%3E%3C%2Froot%3E%3C%2FmxGraphModel%3E&lt;/span&gt;" style="rounded=1;whiteSpace=wrap;html=1;" vertex="1" parent="1">
          <mxGeometry x="-352" y="701" width="93" height="32" as="geometry" />
        </mxCell>
        <mxCell id="WUNTxTCib2SiPZ_xBOhH-108" value="Firewall" style="text;html=1;align=center;verticalAlign=middle;whiteSpace=wrap;rounded=0;fontSize=16;" vertex="1" parent="1">
          <mxGeometry x="-336.75" y="702" width="62.5" height="30" as="geometry" />
        </mxCell>
        <mxCell id="WUNTxTCib2SiPZ_xBOhH-110" value="&lt;span style=&quot;color: rgba(0, 0, 0, 0); font-family: monospace; font-size: 0px; text-align: start; text-wrap-mode: nowrap;&quot;&gt;%3CmxGraphModel%3E%3Croot%3E%3CmxCell%20id%3D%220%22%2F%3E%3CmxCell%20id%3D%221%22%20parent%3D%220%22%2F%3E%3CmxCell%20id%3D%222%22%20value%3D%22Backup%20Server%22%20style%3D%22text%3Bhtml%3D1%3Balign%3Dcenter%3BverticalAlign%3Dmiddle%3BwhiteSpace%3Dwrap%3Brounded%3D0%3B%22%20vertex%3D%221%22%20parent%3D%221%22%3E%3CmxGeometry%20x%3D%22109%22%20y%3D%22180%22%20width%3D%2285%22%20height%3D%2230%22%20as%3D%22geometry%22%2F%3E%3C%2FmxCell%3E%3C%2Froot%3E%3C%2FmxGraphModel%3E&lt;/span&gt;" style="rounded=1;whiteSpace=wrap;html=1;" vertex="1" parent="1">
          <mxGeometry x="-349.25" y="1031" width="93" height="32" as="geometry" />
        </mxCell>
        <mxCell id="WUNTxTCib2SiPZ_xBOhH-111" value="Firewall" style="text;html=1;align=center;verticalAlign=middle;whiteSpace=wrap;rounded=0;fontSize=16;" vertex="1" parent="1">
          <mxGeometry x="-334" y="1032" width="62.5" height="30" as="geometry" />
        </mxCell>
        <mxCell id="WUNTxTCib2SiPZ_xBOhH-112" value="&lt;span style=&quot;color: rgba(0, 0, 0, 0); font-family: monospace; font-size: 0px; text-align: start; text-wrap-mode: nowrap;&quot;&gt;%3CmxGraphModel%3E%3Croot%3E%3CmxCell%20id%3D%220%22%2F%3E%3CmxCell%20id%3D%221%22%20parent%3D%220%22%2F%3E%3CmxCell%20id%3D%222%22%20value%3D%22Backup%20Server%22%20style%3D%22text%3Bhtml%3D1%3Balign%3Dcenter%3BverticalAlign%3Dmiddle%3BwhiteSpace%3Dwrap%3Brounded%3D0%3B%22%20vertex%3D%221%22%20parent%3D%221%22%3E%3CmxGeometry%20x%3D%22109%22%20y%3D%22180%22%20width%3D%2285%22%20height%3D%2230%22%20as%3D%22geometry%22%2F%3E%3C%2FmxCell%3E%3C%2Froot%3E%3C%2FmxGraphModel%3E&lt;/span&gt;" style="rounded=1;whiteSpace=wrap;html=1;" vertex="1" parent="1">
          <mxGeometry x="-790" y="1030" width="93" height="32" as="geometry" />
        </mxCell>
        <mxCell id="WUNTxTCib2SiPZ_xBOhH-113" value="Firewall" style="text;html=1;align=center;verticalAlign=middle;whiteSpace=wrap;rounded=0;fontSize=16;" vertex="1" parent="1">
          <mxGeometry x="-774.75" y="1031" width="62.5" height="30" as="geometry" />
        </mxCell>
        <mxCell id="WUNTxTCib2SiPZ_xBOhH-116" value="" style="shape=mxgraph.cisco.computers_and_peripherals.macintosh;sketch=0;html=1;pointerEvents=1;dashed=0;fillColor=#036897;strokeColor=#ffffff;strokeWidth=2;verticalLabelPosition=bottom;verticalAlign=top;align=center;outlineConnect=0;" vertex="1" parent="1">
          <mxGeometry x="-692.25" y="38" width="130" height="89" as="geometry" />
        </mxCell>
        <mxCell id="WUNTxTCib2SiPZ_xBOhH-117" value="" style="shape=mxgraph.cisco.computers_and_peripherals.macintosh;sketch=0;html=1;pointerEvents=1;dashed=0;fillColor=#036897;strokeColor=#ffffff;strokeWidth=2;verticalLabelPosition=bottom;verticalAlign=top;align=center;outlineConnect=0;" vertex="1" parent="1">
          <mxGeometry x="-526.25" y="34.5" width="130" height="89" as="geometry" />
        </mxCell>
        <mxCell id="WUNTxTCib2SiPZ_xBOhH-118" value="" style="shape=mxgraph.cisco.computers_and_peripherals.macintosh;sketch=0;html=1;pointerEvents=1;dashed=0;fillColor=#036897;strokeColor=#ffffff;strokeWidth=2;verticalLabelPosition=bottom;verticalAlign=top;align=center;outlineConnect=0;" vertex="1" parent="1">
          <mxGeometry x="-364.75" y="34.5" width="130" height="89" as="geometry" />
        </mxCell>
        <mxCell id="WUNTxTCib2SiPZ_xBOhH-120" value="" style="shape=mxgraph.cisco.security.lock;sketch=0;html=1;pointerEvents=1;dashed=0;fillColor=#036897;strokeColor=#ffffff;strokeWidth=2;verticalLabelPosition=bottom;verticalAlign=top;align=center;outlineConnect=0;" vertex="1" parent="1">
          <mxGeometry x="-580.5" y="510" width="86.5" height="91" as="geometry" />
        </mxCell>
        <mxCell id="WUNTxTCib2SiPZ_xBOhH-125" value="" style="edgeStyle=orthogonalEdgeStyle;rounded=0;orthogonalLoop=1;jettySize=auto;html=1;" edge="1" parent="1" source="WUNTxTCib2SiPZ_xBOhH-121" target="WUNTxTCib2SiPZ_xBOhH-120">
          <mxGeometry relative="1" as="geometry" />
        </mxCell>
        <mxCell id="WUNTxTCib2SiPZ_xBOhH-121" value="" style="html=1;shadow=0;dashed=0;align=center;verticalAlign=middle;shape=mxgraph.arrows2.twoWayArrow;dy=0.65;dx=22;rotation=-90;" vertex="1" parent="1">
          <mxGeometry x="-552.63" y="654.38" width="84.75" height="23" as="geometry" />
        </mxCell>
        <mxCell id="WUNTxTCib2SiPZ_xBOhH-122" value="" style="shape=mxgraph.cisco.security.lock;sketch=0;html=1;pointerEvents=1;dashed=0;fillColor=#036897;strokeColor=#ffffff;strokeWidth=2;verticalLabelPosition=bottom;verticalAlign=top;align=center;outlineConnect=0;" vertex="1" parent="1">
          <mxGeometry x="-561.13" y="1138" width="86.5" height="91" as="geometry" />
        </mxCell>
        <mxCell id="WUNTxTCib2SiPZ_xBOhH-124" value="" style="html=1;shadow=0;dashed=0;align=center;verticalAlign=middle;shape=mxgraph.arrows2.twoWayArrow;dy=0.65;dx=22;rotation=-90;" vertex="1" parent="1">
          <mxGeometry x="-530.75" y="1270.25" width="80.5" height="23" as="geometry" />
        </mxCell>
        <mxCell id="WUNTxTCib2SiPZ_xBOhH-126" value="" style="html=1;shadow=0;dashed=0;align=center;verticalAlign=middle;shape=mxgraph.arrows2.twoWayArrow;dy=0.65;dx=22;rotation=-180;" vertex="1" parent="1">
          <mxGeometry x="-679.25" y="323" width="81.5" height="23" as="geometry" />
        </mxCell>
        <mxCell id="WUNTxTCib2SiPZ_xBOhH-127" value="" style="html=1;shadow=0;dashed=0;align=center;verticalAlign=middle;shape=mxgraph.arrows2.twoWayArrow;dy=0.65;dx=22;rotation=-180;" vertex="1" parent="1">
          <mxGeometry x="-656" y="1489.5" width="86.5" height="23" as="geometry" />
        </mxCell>
        <mxCell id="WUNTxTCib2SiPZ_xBOhH-128" value="" style="shape=mxgraph.cisco.servers.fileserver;sketch=0;html=1;pointerEvents=1;dashed=0;fillColor=#036897;strokeColor=#ffffff;strokeWidth=2;verticalLabelPosition=bottom;verticalAlign=top;align=center;outlineConnect=0;" vertex="1" parent="1">
          <mxGeometry x="-346.5" y="1398" width="139" height="152" as="geometry" />
        </mxCell>
        <mxCell id="WUNTxTCib2SiPZ_xBOhH-130" value="" style="html=1;shadow=0;dashed=0;align=center;verticalAlign=middle;shape=mxgraph.arrows2.twoWayArrow;dy=0.65;dx=22;rotation=-180;" vertex="1" parent="1">
          <mxGeometry x="-443.5" y="1492" width="86.5" height="23.5" as="geometry" />
        </mxCell>
        <mxCell id="WUNTxTCib2SiPZ_xBOhH-131" value="" style="shape=mxgraph.cisco.security.lock;sketch=0;html=1;pointerEvents=1;dashed=0;fillColor=#036897;strokeColor=#ffffff;strokeWidth=2;verticalLabelPosition=bottom;verticalAlign=top;align=center;outlineConnect=0;" vertex="1" parent="1">
          <mxGeometry x="-557.75" y="1706" width="86.5" height="91" as="geometry" />
        </mxCell>
        <mxCell id="WUNTxTCib2SiPZ_xBOhH-132" value="" style="strokeWidth=2;html=1;shape=mxgraph.flowchart.annotation_1;align=left;pointerEvents=1;rotation=-90;" vertex="1" parent="1">
          <mxGeometry x="-535.04" y="1352.9" width="44.3" height="444" as="geometry" />
        </mxCell>
        <mxCell id="WUNTxTCib2SiPZ_xBOhH-133" value="" style="strokeWidth=2;html=1;shape=mxgraph.flowchart.annotation_1;align=left;pointerEvents=1;rotation=90;" vertex="1" parent="1">
          <mxGeometry x="-550.87" y="1143.63" width="69.25" height="454" as="geometry" />
        </mxCell>
        <mxCell id="WUNTxTCib2SiPZ_xBOhH-134" value="" style="html=1;shadow=0;dashed=0;align=center;verticalAlign=middle;shape=mxgraph.arrows2.twoWayArrow;dy=0.65;dx=22;rotation=-180;" vertex="1" parent="1">
          <mxGeometry x="-179" y="1456.75" width="86.5" height="23.5" as="geometry" />
        </mxCell>
        <mxCell id="WUNTxTCib2SiPZ_xBOhH-136" value="" style="shape=mxgraph.cisco.misc.acs;sketch=0;html=1;pointerEvents=1;dashed=0;fillColor=#036897;strokeColor=#ffffff;strokeWidth=2;verticalLabelPosition=bottom;verticalAlign=top;align=center;outlineConnect=0;" vertex="1" parent="1">
          <mxGeometry x="-67" y="1423" width="140.64" height="102" as="geometry" />
        </mxCell>
        <mxCell id="WUNTxTCib2SiPZ_xBOhH-137" value="&lt;span style=&quot;color: rgba(0, 0, 0, 0); font-family: monospace; font-size: 0px; text-align: start; text-wrap-mode: nowrap;&quot;&gt;%3CmxGraphModel%3E%3Croot%3E%3CmxCell%20id%3D%220%22%2F%3E%3CmxCell%20id%3D%221%22%20parent%3D%220%22%2F%3E%3CmxCell%20id%3D%222%22%20value%3D%22Backup%20Server%22%20style%3D%22text%3Bhtml%3D1%3Balign%3Dcenter%3BverticalAlign%3Dmiddle%3BwhiteSpace%3Dwrap%3Brounded%3D0%3B%22%20vertex%3D%221%22%20parent%3D%221%22%3E%3CmxGeometry%20x%3D%22109%22%20y%3D%22180%22%20width%3D%2285%22%20height%3D%2230%22%20as%3D%22geometry%22%2F%3E%3C%2FmxCell%3E%3C%2Froot%3E%3C%2FmxGraphModel%3E&lt;/span&gt;" style="rounded=1;whiteSpace=wrap;html=1;" vertex="1" parent="1">
          <mxGeometry x="-269.75" y="1323" width="152" height="58" as="geometry" />
        </mxCell>
        <mxCell id="WUNTxTCib2SiPZ_xBOhH-138" value="Backup Server" style="text;html=1;align=center;verticalAlign=middle;whiteSpace=wrap;rounded=0;fontSize=18;" vertex="1" parent="1">
          <mxGeometry x="-257.5" y="1337" width="127.5" height="30" as="geometry" />
        </mxCell>
        <mxCell id="WUNTxTCib2SiPZ_xBOhH-139" value="&lt;span style=&quot;color: rgba(0, 0, 0, 0); font-family: monospace; font-size: 0px; text-align: start; text-wrap-mode: nowrap;&quot;&gt;%3CmxGraphModel%3E%3Croot%3E%3CmxCell%20id%3D%220%22%2F%3E%3CmxCell%20id%3D%221%22%20parent%3D%220%22%2F%3E%3CmxCell%20id%3D%222%22%20value%3D%22Backup%20Server%22%20style%3D%22text%3Bhtml%3D1%3Balign%3Dcenter%3BverticalAlign%3Dmiddle%3BwhiteSpace%3Dwrap%3Brounded%3D0%3B%22%20vertex%3D%221%22%20parent%3D%221%22%3E%3CmxGeometry%20x%3D%22109%22%20y%3D%22180%22%20width%3D%2285%22%20height%3D%2230%22%20as%3D%22geometry%22%2F%3E%3C%2FmxCell%3E%3C%2Froot%3E%3C%2FmxGraphModel%3E&lt;/span&gt;" style="rounded=1;whiteSpace=wrap;html=1;" vertex="1" parent="1">
          <mxGeometry x="99" y="1445" width="152" height="58" as="geometry" />
        </mxCell>
        <mxCell id="WUNTxTCib2SiPZ_xBOhH-140" value="Monitoramento Continuo" style="text;html=1;align=center;verticalAlign=middle;whiteSpace=wrap;rounded=0;fontSize=18;" vertex="1" parent="1">
          <mxGeometry x="111.25" y="1459" width="127.5" height="30" as="geometry" />
        </mxCell>
        <mxCell id="WUNTxTCib2SiPZ_xBOhH-141" value="&lt;span style=&quot;color: rgba(0, 0, 0, 0); font-family: monospace; font-size: 0px; text-align: start; text-wrap-mode: nowrap;&quot;&gt;%3CmxGraphModel%3E%3Croot%3E%3CmxCell%20id%3D%220%22%2F%3E%3CmxCell%20id%3D%221%22%20parent%3D%220%22%2F%3E%3CmxCell%20id%3D%222%22%20value%3D%22Backup%20Server%22%20style%3D%22text%3Bhtml%3D1%3Balign%3Dcenter%3BverticalAlign%3Dmiddle%3BwhiteSpace%3Dwrap%3Brounded%3D0%3B%22%20vertex%3D%221%22%20parent%3D%221%22%3E%3CmxGeometry%20x%3D%22109%22%20y%3D%22180%22%20width%3D%2285%22%20height%3D%2230%22%20as%3D%22geometry%22%2F%3E%3C%2FmxCell%3E%3C%2Froot%3E%3C%2FmxGraphModel%3E&lt;/span&gt;" style="rounded=1;whiteSpace=wrap;html=1;" vertex="1" parent="1">
          <mxGeometry x="-568" y="1544" width="113" height="38" as="geometry" />
        </mxCell>
        <mxCell id="WUNTxTCib2SiPZ_xBOhH-142" value="Security" style="text;html=1;align=center;verticalAlign=middle;whiteSpace=wrap;rounded=0;fontSize=18;" vertex="1" parent="1">
          <mxGeometry x="-575.25" y="1554" width="127.5" height="15" as="geometry" />
        </mxCell>
        <mxCell id="WUNTxTCib2SiPZ_xBOhH-146" value="&lt;span style=&quot;color: rgba(0, 0, 0, 0); font-family: monospace; font-size: 0px; text-align: start; text-wrap-mode: nowrap;&quot;&gt;%3CmxGraphModel%3E%3Croot%3E%3CmxCell%20id%3D%220%22%2F%3E%3CmxCell%20id%3D%221%22%20parent%3D%220%22%2F%3E%3CmxCell%20id%3D%222%22%20value%3D%22Backup%20Server%22%20style%3D%22text%3Bhtml%3D1%3Balign%3Dcenter%3BverticalAlign%3Dmiddle%3BwhiteSpace%3Dwrap%3Brounded%3D0%3B%22%20vertex%3D%221%22%20parent%3D%221%22%3E%3CmxGeometry%20x%3D%22109%22%20y%3D%22180%22%20width%3D%2285%22%20height%3D%2230%22%20as%3D%22geometry%22%2F%3E%3C%2FmxCell%3E%3C%2Froot%3E%3C%2FmxGraphModel%3E&lt;/span&gt;" style="rounded=1;whiteSpace=wrap;html=1;" vertex="1" parent="1">
          <mxGeometry x="-452.25" y="1176" width="113" height="37" as="geometry" />
        </mxCell>
        <mxCell id="WUNTxTCib2SiPZ_xBOhH-147" value="Security" style="text;html=1;align=center;verticalAlign=middle;whiteSpace=wrap;rounded=0;fontSize=18;" vertex="1" parent="1">
          <mxGeometry x="-459.5" y="1179" width="127.5" height="30" as="geometry" />
        </mxCell>
        <mxCell id="WUNTxTCib2SiPZ_xBOhH-148" value="0" style="html=1;shadow=0;dashed=0;align=center;verticalAlign=middle;shape=mxgraph.arrows2.twoWayArrow;dy=0.65;dx=22;rotation=-180;" vertex="1" parent="1">
          <mxGeometry x="-936" y="1460.75" width="86.5" height="23.5" as="geometry" />
        </mxCell>
        <mxCell id="WUNTxTCib2SiPZ_xBOhH-149" value="" style="shape=mxgraph.cisco.misc.acs;sketch=0;html=1;pointerEvents=1;dashed=0;fillColor=#036897;strokeColor=#ffffff;strokeWidth=2;verticalLabelPosition=bottom;verticalAlign=top;align=center;outlineConnect=0;" vertex="1" parent="1">
          <mxGeometry x="-1104" y="1425" width="140.64" height="102" as="geometry" />
        </mxCell>
        <mxCell id="WUNTxTCib2SiPZ_xBOhH-150" value="&lt;span style=&quot;color: rgba(0, 0, 0, 0); font-family: monospace; font-size: 0px; text-align: start; text-wrap-mode: nowrap;&quot;&gt;%3CmxGraphModel%3E%3Croot%3E%3CmxCell%20id%3D%220%22%2F%3E%3CmxCell%20id%3D%221%22%20parent%3D%220%22%2F%3E%3CmxCell%20id%3D%222%22%20value%3D%22Backup%20Server%22%20style%3D%22text%3Bhtml%3D1%3Balign%3Dcenter%3BverticalAlign%3Dmiddle%3BwhiteSpace%3Dwrap%3Brounded%3D0%3B%22%20vertex%3D%221%22%20parent%3D%221%22%3E%3CmxGeometry%20x%3D%22109%22%20y%3D%22180%22%20width%3D%2285%22%20height%3D%2230%22%20as%3D%22geometry%22%2F%3E%3C%2FmxCell%3E%3C%2Froot%3E%3C%2FmxGraphModel%3E&lt;/span&gt;" style="rounded=1;whiteSpace=wrap;html=1;" vertex="1" parent="1">
          <mxGeometry x="-1273" y="1452.5" width="152" height="58" as="geometry" />
        </mxCell>
        <mxCell id="WUNTxTCib2SiPZ_xBOhH-151" value="Monitoramento Continuo" style="text;html=1;align=center;verticalAlign=middle;whiteSpace=wrap;rounded=0;fontSize=18;" vertex="1" parent="1">
          <mxGeometry x="-1260.75" y="1466.5" width="127.5" height="30" as="geometry" />
        </mxCell>
        <mxCell id="WUNTxTCib2SiPZ_xBOhH-153" value="&#xa;Criptografia SSL/TLS aplicada ao tráfego de dados&#xa;&#xa;" style="text;html=1;align=left;verticalAlign=middle;whiteSpace=wrap;rounded=0;fontSize=18;" vertex="1" parent="1">
          <mxGeometry x="-447.75" y="1239.25" width="247.5" height="30" as="geometry" />
        </mxCell>
        <mxCell id="WUNTxTCib2SiPZ_xBOhH-155" value="" style="html=1;shadow=0;dashed=0;align=center;verticalAlign=middle;shape=mxgraph.arrows2.twoWayArrow;dy=0.65;dx=22;rotation=-90;" vertex="1" parent="1">
          <mxGeometry x="-572.5" y="1847" width="70" height="23" as="geometry" />
        </mxCell>
        <mxCell id="WUNTxTCib2SiPZ_xBOhH-156" value="" style="html=1;shadow=0;dashed=0;align=center;verticalAlign=middle;shape=mxgraph.arrows2.twoWayArrow;dy=0.65;dx=22;rotation=-90;" vertex="1" parent="1">
          <mxGeometry x="-576.5" y="1635" width="70" height="23" as="geometry" />
        </mxCell>
        <mxCell id="WUNTxTCib2SiPZ_xBOhH-158" value="" style="html=1;shadow=0;dashed=0;align=center;verticalAlign=middle;shape=mxgraph.arrows2.twoWayArrow;dy=0.65;dx=22;rotation=-180;" vertex="1" parent="1">
          <mxGeometry x="-656" y="1451" width="86.5" height="23" as="geometry" />
        </mxCell>
        <mxCell id="WUNTxTCib2SiPZ_xBOhH-159" value="" style="html=1;shadow=0;dashed=0;align=center;verticalAlign=middle;shape=mxgraph.arrows2.twoWayArrow;dy=0.65;dx=22;rotation=-180;" vertex="1" parent="1">
          <mxGeometry x="-443.5" y="1453.5" width="86.5" height="23.5" as="geometry" />
        </mxCell>
        <mxCell id="WUNTxTCib2SiPZ_xBOhH-160" value="" style="html=1;shadow=0;dashed=0;align=center;verticalAlign=middle;shape=mxgraph.arrows2.twoWayArrow;dy=0.65;dx=22;rotation=-180;" vertex="1" parent="1">
          <mxGeometry x="-178" y="1491.75" width="86.5" height="23.5" as="geometry" />
        </mxCell>
        <mxCell id="WUNTxTCib2SiPZ_xBOhH-161" value="0" style="html=1;shadow=0;dashed=0;align=center;verticalAlign=middle;shape=mxgraph.arrows2.twoWayArrow;dy=0.65;dx=22;rotation=-180;" vertex="1" parent="1">
          <mxGeometry x="-936" y="1497.75" width="86.5" height="23.5" as="geometry" />
        </mxCell>
        <mxCell id="WUNTxTCib2SiPZ_xBOhH-162" value="" style="html=1;shadow=0;dashed=0;align=center;verticalAlign=middle;shape=mxgraph.arrows2.twoWayArrow;dy=0.65;dx=22;rotation=-90;" vertex="1" parent="1">
          <mxGeometry x="-593.13" y="459.94" width="68.25" height="23" as="geometry" />
        </mxCell>
        <mxCell id="WUNTxTCib2SiPZ_xBOhH-163" value="" style="html=1;shadow=0;dashed=0;align=center;verticalAlign=middle;shape=mxgraph.arrows2.twoWayArrow;dy=0.65;dx=22;rotation=-90;" vertex="1" parent="1">
          <mxGeometry x="-570" y="1076.82" width="72" height="23" as="geometry" />
        </mxCell>
        <mxCell id="WUNTxTCib2SiPZ_xBOhH-164" value="" style="html=1;shadow=0;dashed=0;align=center;verticalAlign=middle;shape=mxgraph.arrows2.twoWayArrow;dy=0.65;dx=22;rotation=-90;" vertex="1" parent="1">
          <mxGeometry x="-593.63" y="652.2" width="84.75" height="23" as="geometry" />
        </mxCell>
        <mxCell id="WUNTxTCib2SiPZ_xBOhH-165" value="" style="html=1;shadow=0;dashed=0;align=center;verticalAlign=middle;shape=mxgraph.arrows2.twoWayArrow;dy=0.65;dx=22;rotation=-90;" vertex="1" parent="1">
          <mxGeometry x="-571.75" y="1268.07" width="80.5" height="23" as="geometry" />
        </mxCell>
        <mxCell id="WUNTxTCib2SiPZ_xBOhH-166" value="" style="html=1;shadow=0;dashed=0;align=center;verticalAlign=middle;shape=mxgraph.arrows2.twoWayArrow;dy=0.65;dx=22;rotation=-180;" vertex="1" parent="1">
          <mxGeometry x="-813.5" y="356" width="81.5" height="23" as="geometry" />
        </mxCell>
        <mxCell id="WUNTxTCib2SiPZ_xBOhH-167" value="" style="html=1;shadow=0;dashed=0;align=center;verticalAlign=middle;shape=mxgraph.arrows2.twoWayArrow;dy=0.65;dx=22;rotation=-180;" vertex="1" parent="1">
          <mxGeometry x="-679.25" y="356" width="81.5" height="23" as="geometry" />
        </mxCell>
        <mxCell id="WUNTxTCib2SiPZ_xBOhH-171" value="" style="html=1;shadow=0;dashed=0;align=center;verticalAlign=middle;shape=mxgraph.arrows2.twoWayArrow;dy=0.65;dx=22;rotation=-90;" vertex="1" parent="1">
          <mxGeometry x="-617.5" y="224.5" width="95" height="23" as="geometry" />
        </mxCell>
        <mxCell id="WUNTxTCib2SiPZ_xBOhH-172" value="" style="html=1;shadow=0;dashed=0;align=center;verticalAlign=middle;shape=mxgraph.arrows2.twoWayArrow;dy=0.65;dx=22;rotation=-90;" vertex="1" parent="1">
          <mxGeometry x="-585.25" y="224.75" width="95.5" height="23" as="geometry" />
        </mxCell>
      </root>
    </mxGraphModel>
  </diagram>
</mxfile>
